<?xml version="1.0" encoding="UTF-8"?>
<svg width="1434px" height="835px" viewBox="0 0 1434 835" version="1.1" xmlns="http://www.w3.org/2000/svg" xmlns:xlink="http://www.w3.org/1999/xlink">
    <!-- Generator: Sketch 57.1 (83088) - https://sketch.com -->
    <title>background</title>
    <desc>Created with Sketch.</desc>
    <g id="background" stroke="none" stroke-width="1" fill="none" fill-rule="evenodd">
        <rect id="Rectangle-Copy" fill="#1B2839" x="0" y="0" width="1434" height="835"></rect>
        <g id="Group-3" transform="translate(-139.000000, -189.000000)">
            <path d="M0,1024.5 C349.136782,1024.5 379.864601,753 491.5,753 C603.135399,753 654.5,1024.5 1011.20047,1024.5 C1173.37109,1024.5 1314.30426,1024.5 1434,1024.5 L0,1024.5 Z" id="Line-2" fill-opacity="0.0390078671" fill="#FFFFFF"></path>
            <path d="M690,1024.5 C1075.17042,1024.5 1109.0696,540.5 1232.22664,540.5 C1355.38368,540.5 1412.04951,1024.5 1805.56426,1024.5 C1984.47215,1024.5 2139.95073,1024.5 2272,1024.5 L690,1024.5 Z" id="Line-2-Copy-2" fill-opacity="0.0588669143" fill="#FFFFFF"></path>
            <g id="Group-2" transform="translate(139.000000, 697.000000)" fill="#4FC56F" fill-opacity="0.114838287">
                <circle id="Oval" cx="35.5" cy="47.5" r="18.5"></circle>
                <circle id="Oval-Copy-9" cx="24" cy="94" r="12"></circle>
                <ellipse id="Oval-Copy-10" cx="56.5" cy="151" rx="12.5" ry="12"></ellipse>
                <circle id="Oval-Copy-8" cx="79.5" cy="56.5" r="8.5"></circle>
                <circle id="Oval-Copy-7" cx="5" cy="19" r="5"></circle>
                <circle id="Oval-Copy" cx="110" cy="19" r="19"></circle>
                <circle id="Oval-Copy-2" cx="130.5" cy="73.5" r="10.5"></circle>
                <circle id="Oval-Copy-5" cx="148" cy="206" r="9"></circle>
                <circle id="Oval-Copy-4" cx="167" cy="163" r="9"></circle>
                <ellipse id="Oval-Copy-3" cx="247" cy="88.5" rx="12" ry="12.5"></ellipse>
                <circle id="Oval-Copy-6" cx="313.5" cy="35.5" r="6.5"></circle>
            </g>
            <g id="Group-2-Copy-2" transform="translate(264.000000, 593.500000) rotate(90.000000) translate(-264.000000, -593.500000) translate(104.000000, 486.000000)" fill="#4FC56F" fill-opacity="0.114838287">
                <circle id="Oval" cx="35.5" cy="47.5" r="18.5"></circle>
                <circle id="Oval-Copy-9" cx="24" cy="94" r="12"></circle>
                <ellipse id="Oval-Copy-10" cx="56.5" cy="151" rx="12.5" ry="12"></ellipse>
                <circle id="Oval-Copy-8" cx="79.5" cy="56.5" r="8.5"></circle>
                <circle id="Oval-Copy-7" cx="5" cy="19" r="5"></circle>
                <circle id="Oval-Copy" cx="110" cy="19" r="19"></circle>
                <circle id="Oval-Copy-2" cx="130.5" cy="73.5" r="10.5"></circle>
                <circle id="Oval-Copy-5" cx="148" cy="206" r="9"></circle>
                <circle id="Oval-Copy-4" cx="167" cy="163" r="9"></circle>
                <ellipse id="Oval-Copy-3" cx="247" cy="88.5" rx="12" ry="12.5"></ellipse>
                <circle id="Oval-Copy-6" cx="313.5" cy="35.5" r="6.5"></circle>
            </g>
            <g id="Group-2-Copy-3" transform="translate(1438.000000, 308.500000) rotate(270.000000) translate(-1438.000000, -308.500000) translate(1278.000000, 201.000000)" fill="#4FC56F" fill-opacity="0.114838287">
                <circle id="Oval" cx="35.5" cy="47.5" r="18.5"></circle>
                <circle id="Oval-Copy-9" cx="24" cy="94" r="12"></circle>
                <ellipse id="Oval-Copy-10" cx="56.5" cy="151" rx="12.5" ry="12"></ellipse>
                <circle id="Oval-Copy-8" cx="79.5" cy="56.5" r="8.5"></circle>
                <circle id="Oval-Copy-7" cx="5" cy="19" r="5"></circle>
                <circle id="Oval-Copy" cx="110" cy="19" r="19"></circle>
                <circle id="Oval-Copy-2" cx="130.5" cy="73.5" r="10.5"></circle>
                <circle id="Oval-Copy-5" cx="148" cy="206" r="9"></circle>
                <circle id="Oval-Copy-4" cx="167" cy="163" r="9"></circle>
                <ellipse id="Oval-Copy-3" cx="247" cy="88.5" rx="12" ry="12.5"></ellipse>
            </g>
            <path d="M371.5,1024.5 C720.636782,1024.5 751.364601,835.5 863,835.5 C974.635399,835.5 1026,1024.5 1382.70047,1024.5 C1544.87109,1024.5 1685.80426,1024.5 1805.5,1024.5 L371.5,1024.5 Z" id="Line-2-Copy" fill-opacity="0.0284090909" fill="#FFFFFF"></path>
            <path d="M800,1029 L816.830247,950.860758 L856.201003,989.930379 L856.201003,935.83398 L884.908077,956.270397 L908.795525,881.737582 L931.937114,994.643164 L940.123178,925.0147 L956.779722,961.680037 L975.691295,846.875458 L1012.18133,979.436762 L1053.65586,692.60631 L1116.50807,870.317231 L1158.25119,832.449752 L1189.08334,943.165154 L1225.43648,754.310509 L1239.27634,866.109733 L1265.743,669.620699 L1333.29638,796.771226 L1344.1254,727.26231 L1363.21219,810.805743 L1382.40862,715.152134 L1397.23186,881.737582 L1404.26184,803.013615 L1404.26184,843.870103 L1416.57562,753.108367 L1427.0561,832.449752 L1440.18895,692.60631 L1494.84877,809.008458 L1527.90853,545 L1565.93731,658.028562 L1578.39892,609.704756 L1579,1029 L800,1029 Z" id="Path-2" stroke-opacity="0.1" stroke="#4FC56F" stroke-width="5" stroke-linecap="round" stroke-linejoin="round" stroke-dasharray="8,13"></path>
            <circle id="Oval" fill-opacity="0.03" fill="#FFFFFF" cx="1243" cy="298" r="97"></circle>
            <circle id="Oval-Copy-11" fill-opacity="0.03" fill="#FFFFFF" cx="1473" cy="201" r="201"></circle>
            <circle id="Oval" fill-opacity="0.03" fill="#FFFFFF" cx="1517" cy="416" r="157"></circle>
            <path d="M-141,722 C106.221253,722 127.979401,530 207.027627,530 C286.075853,530 322.446759,722 575.023806,722 C689.855655,722 451.181053,722 -141,722 Z" id="Line-2" stroke-opacity="0.0588669143" stroke="#FFFFFF" stroke-width="6" stroke-linecap="square" transform="translate(231.000000, 626.000000) rotate(90.000000) translate(-231.000000, -626.000000) "></path>
        </g>
    </g>
</svg>