<?xml version="1.0" encoding="UTF-8"?>
<svg width="167px" height="255px" viewBox="0 0 167 255" version="1.1" xmlns="http://www.w3.org/2000/svg" xmlns:xlink="http://www.w3.org/1999/xlink">
    <!-- Generator: Sketch 55.2 (78181) - https://sketchapp.com -->
    <title>site-logo</title>
    <desc>Created with Sketch.</desc>
    <g id="Second-Concept" stroke="none" stroke-width="1" fill="none" fill-rule="evenodd">
        <g id="Landing-Page" transform="translate(-638.000000, -211.000000)">
            <g id="site-logo" transform="translate(638.000000, 211.000000)">
                <g id="logo-copy-3">
                    <path d="M158.106564,46.8931563 C158.378562,46.7739217 158.602863,46.5607624 158.741758,46.2895141 C159.075691,45.6373777 158.838947,44.826695 158.212977,44.4788044 L151.055731,40.5010701 C150.983738,40.4610589 150.915568,40.4139926 150.852145,40.3605093 C150.300689,39.8954802 150.215501,39.0527702 150.661872,38.4782638 L157.306688,29.9259706 C157.60363,29.5437879 157.675499,29.0227474 157.493872,28.5689198 C157.220841,27.8867068 156.468653,27.5642511 155.813818,27.8487098 C129.974794,39.0724397 104.838685,45.1783644 79.4708844,45.1783644 C54.1030841,45.1783644 28.9184094,39.0724397 3.07938541,27.8487098 C2.42455125,27.5642511 1.6723632,27.8867068 1.39933238,28.5689198 C1.2177045,29.0227474 1.28957355,29.5437879 1.58651541,29.9259706 L8.23133212,38.4782638 C8.67770247,39.0527702 8.59251442,39.8954802 8.04105928,40.3605093 C7.97763601,40.4139926 7.90946571,40.4610589 7.83747245,40.5010701 L0.680227104,44.4788044 C0.0542564273,44.826695 -0.182486885,45.6373777 0.15144576,46.2895141 C0.290341024,46.5607624 0.514641954,46.7739217 0.786639795,46.8931563 C26.2718713,58.0650144 52.2866559,63.6509434 79.4708844,63.6509434 C106.655113,63.6509434 132.621333,58.0650144 158.106564,46.8931563 Z" id="Path" fill="#EA8956"></path>
                    <path d="M22.6990291,63.6509434 C30.7687884,66.2800268 43.8562735,69.0860135 53.5048544,70.4094889 C53.5048544,82.7799542 53.5048544,108.272389 53.5048544,146.886792 L23.3398966,146.886792 C22.9126516,100.079461 22.6990291,72.3341782 22.6990291,63.6509434 Z" id="Rectangle" fill="#4FC56F"></path>
                    <path d="M71.3398058,72.8239127 C77.9726467,73.5514093 92.8665348,73.1627514 102.145631,71.8113208 C102.145631,81.4703231 102.145631,100.511204 102.145631,128.933962 L71.3398058,128.933962 C71.3398058,98.3072327 71.3398058,79.6038828 71.3398058,72.8239127 Z" id="Rectangle-Copy-2" fill="#4FC56F"></path>
                    <path d="M116.737864,68.398271 C125.953752,66.9186163 140.425027,63.0660263 147.543689,60.3867925 C147.543689,65.4810634 147.543689,77.993642 147.543689,97.9245283 L116.737864,97.9245283 C116.737864,81.8161924 116.737864,71.9741066 116.737864,68.398271 Z" id="Rectangle-Copy-3" fill="#4FC56F"></path>
                    <path d="M85.7120144,163.653825 C84.9685435,163.857756 82.4219068,164.761232 81.7030952,164.953393 C54.7953256,172.146682 44.9439862,170.934916 15.5885872,172.99424 C15.3210541,173.013008 15.0151843,172.99081 14.8498824,172.853958 C14.7028809,172.715812 14.592233,172.411694 14.592233,172.181185 C14.592233,166.820467 14.592233,163.086673 14.592233,160.460563 C14.592233,159.949644 14.7348429,159.764599 14.88868,159.569618 C15.0882192,159.332648 15.3762865,159.281169 15.7649154,159.280479 C50.0784619,159.219507 67.1331167,156.466999 83.8961748,151.053713 C100.849088,145.579117 136.695022,120.514957 136.695022,120.514957 C136.695022,120.514957 134.925241,119.340065 125.951475,114.458273 C125.01128,113.946801 124.654489,112.752613 125.154559,111.790981 C125.406733,111.30605 125.845205,110.950649 126.364403,110.81035 C152.740973,103.682759 166.266004,100.515179 166.939496,101.307608 C167.612915,102.099952 162.664907,115.355139 152.095472,141.07317 C151.682821,142.077269 150.552462,142.549098 149.570751,142.127031 C149.074959,141.913876 148.688735,141.498622 148.505325,140.981523 C145.010424,131.128158 144.996718,131.305288 144.436741,130.115143 C124.094326,145.175046 104.519418,156.354606 85.7120144,163.653825 Z" id="Path-Copy" fill="#5084EA"></path>
                    <ellipse id="Oval" fill="#EA8956" cx="82.6893204" cy="17.9528302" rx="17.8349515" ry="17.9528302"></ellipse>
                </g>
                <g id="Group-Copy" transform="translate(2.000000, 169.000000)" fill="#FFFFFF" fill-rule="nonzero">
                    <path d="M0.131935047,39.8667906 C0.0439779093,39.8667906 0,39.8223673 0,39.7335193 L0.0527740189,21.4220363 C0.0527740189,21.3509579 0.0879563464,21.3154192 0.158322057,21.3154192 L5.09269283,21.2887649 C6.06022135,21.2709953 6.94417732,21.5019967 7.74458728,21.9817759 C8.54499724,22.4615552 9.18267692,23.1056936 9.65764547,23.9142104 C10.132614,24.7227273 10.3700947,25.6156364 10.3700947,26.5929645 L10.3700947,34.2427398 C10.3700947,35.2733767 10.1238184,36.2107091 9.63125846,37.0547652 C9.13869848,37.8988213 8.47902984,38.5696137 7.65223275,39.0671626 C6.82543565,39.5647114 5.89310397,39.8223668 4.85520974,39.8401364 L0.131935047,39.8667906 Z M3.21921516,36.5883155 L4.85520974,36.5883155 C5.50609256,36.5883155 6.05581643,36.3573142 6.50439783,35.8953045 C6.95297924,35.4332949 7.17726658,34.8824455 7.17726658,34.2427398 L7.17726658,26.5663102 C7.17726658,25.997683 6.9705704,25.5045839 6.55717185,25.0869983 C6.14377331,24.6694127 5.65561851,24.4695076 5.09269283,24.4872772 L3.24560217,24.5139315 L3.21921516,36.5883155 Z M14.3281461,39.7335193 L17.6001353,21.4220363 C17.6177267,21.3509579 17.6617047,21.3154192 17.7320704,21.3154192 L21.5581867,21.3154192 C21.6285524,21.3154192 21.6725304,21.3509579 21.6901218,21.4220363 L24.8301759,39.7335193 C24.8477673,39.8223673 24.812585,39.8667906 24.7246279,39.8667906 L21.7956698,39.8667906 C21.7253041,39.8667906 21.6813262,39.8223673 21.6637348,39.7335193 L21.3734777,37.7877576 L17.7848444,37.7877576 L17.4945873,39.7335193 C17.4769959,39.8223673 17.4330179,39.8667906 17.3626522,39.8667906 L14.4336942,39.8667906 C14.3633285,39.8667906 14.3281461,39.8223673 14.3281461,39.7335193 Z M18.3125846,34.9357508 L20.8457375,34.9357508 L19.7638701,27.4459011 L19.605548,26.4596932 L19.5,27.4459011 L18.3125846,34.9357508 Z M31.1630582,39.8667906 C31.0926925,39.8667906 31.0575101,39.8223673 31.0575101,39.7335193 L31.0575101,24.5405858 L27.6271989,24.5405858 C27.5392418,24.5405858 27.4952639,24.4961624 27.4952639,24.4073144 L27.5216509,21.4220363 C27.5216509,21.3509579 27.5568332,21.3154192 27.6271989,21.3154192 L37.6542625,21.3154192 C37.7422197,21.3154192 37.7861976,21.3509579 37.7861976,21.4220363 L37.7861976,24.4073144 C37.7861976,24.4961624 37.7510152,24.5405858 37.6806495,24.5405858 L34.2239513,24.5405858 L34.2503383,39.7335193 C34.2503383,39.8223673 34.215156,39.8667906 34.1447903,39.8667906 L31.1630582,39.8667906 Z M40.2665765,39.7335193 L43.5385656,21.4220363 C43.5561571,21.3509579 43.600135,21.3154192 43.6705007,21.3154192 L47.4966171,21.3154192 C47.5669828,21.3154192 47.6109607,21.3509579 47.6285521,21.4220363 L50.7686062,39.7335193 C50.7861977,39.8223673 50.7510153,39.8667906 50.6630582,39.8667906 L47.7341001,39.8667906 C47.6637344,39.8667906 47.6197565,39.8223673 47.6021651,39.7335193 L47.311908,37.7877576 L43.7232747,37.7877576 L43.4330176,39.7335193 C43.4154262,39.8223673 43.3714483,39.8667906 43.3010825,39.8667906 L40.3721245,39.8667906 C40.3017588,39.8667906 40.2665765,39.8223673 40.2665765,39.7335193 Z M44.2510149,34.9357508 L46.7841678,34.9357508 L45.7023004,27.4459011 L45.5439783,26.4596932 L45.4384303,27.4459011 L44.2510149,34.9357508 Z M67.6826793,40.1333333 C66.7327422,40.1333333 65.8663774,39.889005 65.0835589,39.4003409 C64.3007403,38.9116769 63.676254,38.2630961 63.2100812,37.4545793 C62.7439084,36.6460624 62.5108254,35.7531533 62.5108254,34.7758252 L62.5108254,33.5497288 C62.5108254,33.4608808 62.5548033,33.4164575 62.6427605,33.4164575 L65.5981055,33.4164575 C65.6684713,33.4164575 65.7036536,33.4608808 65.7036536,33.5497288 L65.7036536,34.7758252 C65.7036536,35.3622221 65.8971564,35.8642058 66.2841678,36.2817914 C66.6711792,36.6993771 67.137345,36.9081667 67.6826793,36.9081667 C68.2280136,36.9081667 68.6941794,36.6949347 69.0811908,36.2684643 C69.4682022,35.8419938 69.661705,35.3444525 69.661705,34.7758252 C69.661705,34.1183499 69.2395171,33.5497312 68.3951286,33.069952 C68.1136657,32.9100255 67.6738866,32.6612549 67.0757781,32.3236324 C66.4776695,31.98601 65.9147523,31.666162 65.3870095,31.3640787 C64.419481,30.7954515 63.702641,30.0802357 63.2364682,29.21841 C62.7702954,28.3565844 62.5372124,27.3837133 62.5372124,26.2997675 C62.5372124,25.3046699 62.7746932,24.4117608 63.2496617,23.6210135 C63.7246303,22.8302662 64.3535144,22.2038971 65.1363329,21.7418875 C65.9191514,21.2798778 66.7679251,21.0488765 67.6826793,21.0488765 C68.615025,21.0488765 69.4725942,21.2843202 70.2554127,21.7552146 C71.0382312,22.2261091 71.6627176,22.8569205 72.1288904,23.6476678 C72.5950632,24.438415 72.8281461,25.3224395 72.8281461,26.2997675 L72.8281461,28.4854176 C72.8281461,28.556496 72.7929638,28.5920347 72.7225981,28.5920347 L69.767253,28.5920347 C69.6968873,28.5920347 69.661705,28.556496 69.661705,28.4854176 L69.635318,26.2997675 C69.635318,25.6778315 69.4418152,25.1714054 69.0548038,24.7804742 C68.6677924,24.389543 68.2104221,24.1940803 67.6826793,24.1940803 C67.137345,24.1940803 66.6711792,24.40287 66.2841678,24.8204556 C65.8971564,25.2380412 65.7036536,25.7311403 65.7036536,26.2997675 C65.7036536,26.8861644 65.8267917,27.3748211 66.0730717,27.7657524 C66.3193517,28.1566836 66.7679264,28.5298396 67.4188092,28.8852317 C67.5067663,28.9385405 67.6782802,29.0318295 67.9333559,29.1651015 C68.1884316,29.2983735 68.4654924,29.4494129 68.7645467,29.6182241 C69.063601,29.7870353 69.3318662,29.9336323 69.5693505,30.0580195 C69.8068347,30.1824067 69.9519618,30.2623687 70.0047361,30.2979079 C70.8843075,30.7954568 71.5791585,31.4040565 72.0893099,32.1237254 C72.5994613,32.8433943 72.8545332,33.7274187 72.8545332,34.7758252 C72.8545332,35.7886925 72.6214502,36.6993709 72.1552774,37.5078878 C71.6891046,38.3164047 71.0646183,38.9561008 70.2817997,39.4269952 C69.4989812,39.8978896 68.6326164,40.1333333 67.6826793,40.1333333 Z M82.8552097,40.1333333 C81.8876812,40.1333333 81.0125208,39.889005 80.2297023,39.4003409 C79.4468838,38.9116769 78.8267953,38.2586538 78.3694181,37.4412521 C77.912041,36.6238505 77.6833559,35.7087297 77.6833559,34.6958624 L77.7097429,26.3797304 C77.7097429,25.4024023 77.9340302,24.5094932 78.3826116,23.7009763 C78.831193,22.8924594 79.4468838,22.2438787 80.2297023,21.7552146 C81.0125208,21.2665506 81.8876812,21.0222222 82.8552097,21.0222222 C83.8227383,21.0222222 84.6935009,21.2621082 85.4675237,21.7418875 C86.2415465,22.2216667 86.8572372,22.8658051 87.3146143,23.674322 C87.7719915,24.4828389 88.0006766,25.3846327 88.0006766,26.3797304 L88.0006766,27.6058267 C88.0006766,27.6769052 87.9654943,27.7124438 87.8951286,27.7124438 L84.9397835,27.7124438 C84.8694178,27.7124438 84.8342355,27.6769052 84.8342355,27.6058267 L84.8342355,26.3797304 C84.8342355,25.7933335 84.6451304,25.2869074 84.2669147,24.860437 C83.8886991,24.4339666 83.4181354,24.2207345 82.8552097,24.2207345 C82.2219183,24.2207345 81.7381613,24.4384089 81.4039242,24.8737641 C81.0696871,25.3091194 80.902571,25.8111031 80.902571,26.3797304 L80.902571,34.6958624 C80.902571,35.3533377 81.0916761,35.8864177 81.4698917,36.2951185 C81.8481074,36.7038194 82.3098755,36.9081667 82.8552097,36.9081667 C83.4181354,36.9081667 83.8886991,36.6816077 84.2669147,36.2284829 C84.6451304,35.775358 84.8342355,35.2644896 84.8342355,34.6958624 L84.8342355,33.469766 C84.8342355,33.3986876 84.8694178,33.3631489 84.9397835,33.3631489 L87.9215156,33.3631489 C87.9918813,33.3631489 88.0270636,33.3986876 88.0270636,33.469766 L88.0270636,34.6958624 C88.0270636,35.7087297 87.7939807,36.6238505 87.3278078,37.4412521 C86.861635,38.2586538 86.2415465,38.9116769 85.4675237,39.4003409 C84.6935009,39.889005 83.8227383,40.1333333 82.8552097,40.1333333 Z M93.3836265,39.8667906 C93.2956694,39.8667906 93.2516915,39.8223673 93.2516915,39.7335193 L93.2780785,21.4220363 C93.2780785,21.3509579 93.3132608,21.3154192 93.3836265,21.3154192 L96.3389716,21.3154192 C96.4093373,21.3154192 96.4445196,21.3509579 96.4445196,21.4220363 L96.4709066,39.7335193 C96.4709066,39.8223673 96.4357243,39.8667906 96.3653586,39.8667906 L93.3836265,39.8667906 Z M102.196888,39.8667906 C102.126522,39.8667906 102.09134,39.8223673 102.09134,39.7335193 L102.117727,21.4220363 C102.117727,21.3509579 102.152909,21.3154192 102.223275,21.3154192 L110.693505,21.3154192 C110.76387,21.3154192 110.799053,21.3598425 110.799053,21.4486905 L110.799053,24.4339687 C110.799053,24.5050471 110.76387,24.5405858 110.693505,24.5405858 L105.284168,24.5405858 L105.284168,28.6986518 L110.693505,28.6986518 C110.76387,28.6986518 110.799053,28.7341905 110.799053,28.8052689 L110.82544,31.8172013 C110.82544,31.8882797 110.790257,31.9238184 110.719892,31.9238184 L105.284168,31.9238184 L105.284168,36.5883155 L110.719892,36.5883155 C110.790257,36.5883155 110.82544,36.6327389 110.82544,36.7215869 L110.82544,39.7601736 C110.82544,39.831252 110.790257,39.8667906 110.719892,39.8667906 L102.196888,39.8667906 Z M116.709743,39.8667906 C116.569011,39.8667906 116.498647,39.804598 116.498647,39.6802108 L116.47226,21.5286533 C116.47226,21.3864965 116.542624,21.3154192 116.683356,21.3154192 L119.058187,21.3154192 L123.517591,31.8172013 L123.385656,21.5286533 C123.385656,21.3864965 123.464817,21.3154192 123.623139,21.3154192 L126.235453,21.3154192 C126.341002,21.3154192 126.393775,21.3864965 126.393775,21.5286533 L126.420162,39.706865 C126.420162,39.8134826 126.376184,39.8667906 126.288227,39.8667906 L123.966171,39.8667906 L119.401218,30.0580195 L119.585927,39.6535565 C119.585927,39.7957133 119.506767,39.8667906 119.348444,39.8667906 L116.709743,39.8667906 Z M136.869418,40.1333333 C135.90189,40.1333333 135.026729,39.889005 134.243911,39.4003409 C133.461092,38.9116769 132.841004,38.2586538 132.383627,37.4412521 C131.926249,36.6238505 131.697564,35.7087297 131.697564,34.6958624 L131.723951,26.3797304 C131.723951,25.4024023 131.948239,24.5094932 132.39682,23.7009763 C132.845401,22.8924594 133.461092,22.2438787 134.243911,21.7552146 C135.026729,21.2665506 135.90189,21.0222222 136.869418,21.0222222 C137.836947,21.0222222 138.707709,21.2621082 139.481732,21.7418875 C140.255755,22.2216667 140.871446,22.8658051 141.328823,23.674322 C141.7862,24.4828389 142.014885,25.3846327 142.014885,26.3797304 L142.014885,27.6058267 C142.014885,27.6769052 141.979703,27.7124438 141.909337,27.7124438 L138.953992,27.7124438 C138.883626,27.7124438 138.848444,27.6769052 138.848444,27.6058267 L138.848444,26.3797304 C138.848444,25.7933335 138.659339,25.2869074 138.281123,24.860437 C137.902907,24.4339666 137.432344,24.2207345 136.869418,24.2207345 C136.236127,24.2207345 135.75237,24.4384089 135.418133,24.8737641 C135.083895,25.3091194 134.916779,25.8111031 134.916779,26.3797304 L134.916779,34.6958624 C134.916779,35.3533377 135.105884,35.8864177 135.4841,36.2951185 C135.862316,36.7038194 136.324084,36.9081667 136.869418,36.9081667 C137.432344,36.9081667 137.902907,36.6816077 138.281123,36.2284829 C138.659339,35.775358 138.848444,35.2644896 138.848444,34.6958624 L138.848444,33.469766 C138.848444,33.3986876 138.883626,33.3631489 138.953992,33.3631489 L141.935724,33.3631489 C142.00609,33.3631489 142.041272,33.3986876 142.041272,33.469766 L142.041272,34.6958624 C142.041272,35.7087297 141.808189,36.6238505 141.342016,37.4412521 C140.875843,38.2586538 140.255755,38.9116769 139.481732,39.4003409 C138.707709,39.889005 137.836947,40.1333333 136.869418,40.1333333 Z M147.371448,39.8667906 C147.301082,39.8667906 147.2659,39.8223673 147.2659,39.7335193 L147.292287,21.4220363 C147.292287,21.3509579 147.327469,21.3154192 147.397835,21.3154192 L155.868065,21.3154192 C155.938431,21.3154192 155.973613,21.3598425 155.973613,21.4486905 L155.973613,24.4339687 C155.973613,24.5050471 155.938431,24.5405858 155.868065,24.5405858 L150.458728,24.5405858 L150.458728,28.6986518 L155.868065,28.6986518 C155.938431,28.6986518 155.973613,28.7341905 155.973613,28.8052689 L156,31.8172013 C156,31.8882797 155.964818,31.9238184 155.894452,31.9238184 L150.458728,31.9238184 L150.458728,36.5883155 L155.894452,36.5883155 C155.964818,36.5883155 156,36.6327389 156,36.7215869 L156,39.7601736 C156,39.831252 155.964818,39.8667906 155.894452,39.8667906 L147.371448,39.8667906 Z" id="DATASCIENCE"></path>
                    <path d="M129.797101,13.3777778 C129.745571,13.3777778 129.719807,13.3457432 129.719807,13.2816731 L129.719807,2.32573436 L127.207729,2.32573436 C127.143317,2.32573436 127.111111,2.29369977 127.111111,2.22962963 L127.130435,0.0768837803 C127.130435,0.0256276705 127.156199,0 127.207729,0 L134.550725,0 C134.615137,0 134.647343,0.0256276705 134.647343,0.0768837803 L134.647343,2.22962963 C134.647343,2.29369977 134.621578,2.32573436 134.570048,2.32573436 L132.038647,2.32573436 L132.057971,13.2816731 C132.057971,13.3457432 132.032206,13.3777778 131.980676,13.3777778 L129.797101,13.3777778 Z M138.086957,13.3777778 C138.035426,13.3777778 138.009662,13.3457432 138.009662,13.2816731 L138.028986,0.0768837803 C138.028986,0.0256276705 138.061191,0 138.125604,0 L140.270531,0 C140.334944,0 140.36715,0.0256276705 140.36715,0.0768837803 L140.347826,5.30498084 L143.246377,5.30498084 L143.246377,0.0768837803 C143.246377,0.0256276705 143.272141,0 143.323671,0 L145.468599,0 C145.533012,0 145.565217,0.0256276705 145.565217,0.0768837803 L145.603865,13.2816731 C145.603865,13.3457432 145.571659,13.3777778 145.507246,13.3777778 L143.342995,13.3777778 C143.278583,13.3777778 143.246377,13.3457432 143.246377,13.2816731 L143.246377,7.6307152 L140.347826,7.6307152 L140.347826,13.2816731 C140.347826,13.3457432 140.322061,13.3777778 140.270531,13.3777778 L138.086957,13.3777778 Z M149.681159,13.3777778 C149.629629,13.3777778 149.603865,13.3457432 149.603865,13.2816731 L149.623188,0.0768837803 C149.623188,0.0256276705 149.648953,0 149.700483,0 L155.903382,0 C155.954912,0 155.980676,0.0320345881 155.980676,0.0961047254 L155.980676,2.24885057 C155.980676,2.30010668 155.954912,2.32573436 155.903382,2.32573436 L151.942029,2.32573436 L151.942029,5.32420179 L155.903382,5.32420179 C155.954912,5.32420179 155.980676,5.34982946 155.980676,5.40108557 L156,7.57305236 C156,7.62430847 155.974235,7.64993614 155.922705,7.64993614 L151.942029,7.64993614 L151.942029,11.0136015 L155.922705,11.0136015 C155.974235,11.0136015 156,11.0456361 156,11.1097063 L156,13.300894 C156,13.3521501 155.974235,13.3777778 155.922705,13.3777778 L149.681159,13.3777778 Z" id="THE"></path>
                    <path d="M18.4757185,86 L11.1060456,86 L11.1060456,74.6306214 C9.47405857,74.2254745 7.97522982,73.5755611 6.60951437,72.6808616 C5.24379892,71.7861622 4.07136268,70.7184472 3.09217047,69.4776848 C2.11297826,68.2369224 1.35282728,66.8611316 0.811694747,65.3502712 C0.27056221,63.8394108 0,62.248389 0,60.5771579 L0,49.6888889 L7.39544103,49.6888889 L7.39544103,60.5771579 C7.39544103,61.5731441 7.58869975,62.5142525 7.97522299,63.4005114 C8.36174623,64.2867703 8.88998674,65.05907 9.55996036,65.7174338 C10.229934,66.3757975 11.0158528,66.8948842 11.9177403,67.2747094 C12.8196279,67.6545347 13.7773322,67.8444444 14.7908821,67.8444444 C15.8044319,67.8444444 16.7621362,67.6545347 17.6640238,67.2747094 C18.5659113,66.8948842 19.3518301,66.3757975 20.0218038,65.7174338 C20.6917774,65.05907 21.2200179,64.2867703 21.6065411,63.4005114 C21.9930644,62.5142525 22.1863231,61.5731441 22.1863231,60.5771579 L22.1863231,49.6888889 L29.555996,49.6888889 L29.555996,60.5771579 C29.555996,62.248389 29.2854338,63.8394108 28.7443013,65.3502712 C28.2031688,66.8611316 27.4430178,68.2369224 26.4638256,69.4776848 C25.4846334,70.7184472 24.3164918,71.7861622 22.9593657,72.6808616 C21.6022397,73.5755611 20.1077056,74.2254745 18.4757185,74.6306214 L18.4757185,86 Z M63.3379584,71.4907485 L63.3379584,64.223462 C63.3379584,63.2274758 63.1446997,62.2863674 62.7581764,61.4001085 C62.3716532,60.5138496 61.8434127,59.7415499 61.173439,59.0831861 C60.5034654,58.4248224 59.7175466,57.9057357 58.8156591,57.5259104 C57.9137715,57.1460852 56.9560672,56.9561754 55.9425173,56.9561754 C54.9289675,56.9561754 53.9712632,57.1460852 53.0693756,57.5259104 C52.1674881,57.9057357 51.3815693,58.4248224 50.7115956,59.0831861 C50.041622,59.7415499 49.5133815,60.5138496 49.1268583,61.4001085 C48.740335,62.2863674 48.5470763,63.2274758 48.5470763,64.223462 L48.5470763,71.4907485 L63.3379584,71.4907485 Z M70.7333994,86 L63.3379584,86 L63.3379584,78.7327135 L48.5470763,78.7327135 L48.5470763,86 L41.1774034,86 L41.1774034,64.223462 C41.1774034,62.2146085 41.5639208,60.3281714 42.3369673,58.5640942 C43.1100138,56.800017 44.1622001,55.2596378 45.493558,53.9429103 C46.8249158,52.6261828 48.3881641,51.5880094 50.1833499,50.8283589 C51.9785356,50.0687084 53.8982389,49.6888889 55.9425173,49.6888889 C57.9867958,49.6888889 59.9064991,50.0687084 61.7016848,50.8283589 C63.4968706,51.5880094 65.0644135,52.6261828 66.4043608,53.9429103 C67.744308,55.2596378 68.800789,56.800017 69.5738355,58.5640942 C70.346882,60.3281714 70.7333994,62.2146085 70.7333994,64.223462 L70.7333994,86 Z M91.9663033,56.9561754 L91.9663033,71.4907485 L99.3617443,71.4907485 C100.375294,71.4907485 101.328704,71.3008387 102.222002,70.9210135 C103.1153,70.5411882 103.896924,70.0221015 104.566898,69.3637378 C105.236872,68.7053741 105.765112,67.9330743 106.151635,67.0468154 C106.538159,66.1605565 106.731417,65.2194481 106.731417,64.223462 C106.731417,63.2274758 106.538159,62.2863674 106.151635,61.4001085 C105.765112,60.5138496 105.236872,59.7415499 104.566898,59.0831861 C103.896924,58.4248224 103.1153,57.9057357 102.222002,57.5259104 C101.328704,57.1460852 100.375294,56.9561754 99.3617443,56.9561754 L91.9663033,56.9561754 Z M91.9663033,86 L84.5708622,86 L84.5708622,49.6888889 L99.3617443,49.6888889 C100.71887,49.6888889 102.02444,49.8619178 103.278494,50.2079808 C104.532547,50.5540438 105.704983,51.043589 106.795837,51.676631 C107.886692,52.3096731 108.883048,53.0693122 109.784936,53.9555711 C110.686823,54.8418299 111.459858,55.8251405 112.104063,56.9055323 C112.748269,57.9859241 113.246447,59.1422636 113.598612,60.3745855 C113.950778,61.6069073 114.126858,62.8898533 114.126858,64.223462 C114.126858,65.472665 113.967957,66.6880875 113.650149,67.869766 C113.332341,69.0514445 112.877109,70.1740223 112.28444,71.2375329 C111.691771,72.3010436 110.965977,73.280134 110.107037,74.1748334 C109.248096,75.0695329 108.286097,75.8460528 107.221011,76.5044166 L111.318137,86 L103.45887,86 L100.237859,78.6820704 L91.9663033,78.7327135 L91.9663033,86 Z M156,67.8444444 C156,69.5156755 155.780973,71.1235782 155.342914,72.6682008 C154.904854,74.2128235 154.282132,75.6561377 153.474727,76.9981869 C152.667323,78.3402361 151.705324,79.564099 150.588702,80.6698125 C149.472079,81.775526 148.226634,82.7250748 146.852329,83.5184875 C145.478024,84.3119002 144.004963,84.9238317 142.433102,85.3543003 C140.861241,85.7847689 139.224984,86 137.524281,86 L126.392468,86 L126.392468,49.6888889 L137.524281,49.6888889 C139.224984,49.6888889 140.861241,49.90412 142.433102,50.3345886 C144.004963,50.7650572 145.478024,51.3769886 146.852329,52.1704014 C148.226634,52.9638141 149.472079,53.9133629 150.588702,55.0190764 C151.705324,56.1247899 152.667323,57.3486528 153.474727,58.690702 C154.282132,60.0327512 154.904854,61.4760654 155.342914,63.0206881 C155.780973,64.5653107 156,66.1732134 156,67.8444444 Z M148.604559,67.8444444 C148.604559,66.3420246 148.316818,64.9324721 147.741328,63.6157446 C147.165838,62.2990171 146.375624,61.1468979 145.370664,60.1593522 C144.365704,59.1718066 143.188973,58.3910665 141.840436,57.8171083 C140.491899,57.2431502 139.053196,56.9561754 137.524281,56.9561754 L133.839445,56.9561754 L133.839445,78.7327135 L137.524281,78.7327135 C139.053196,78.7327135 140.491899,78.4499589 141.840436,77.8844413 C143.188973,77.3189238 144.365704,76.5424038 145.370664,75.5548582 C146.375624,74.5673126 147.165838,73.4109731 147.741328,72.0858051 C148.316818,70.760637 148.604559,69.3468643 148.604559,67.8444444 Z" id="YARD"></path>
                </g>
            </g>
        </g>
    </g>
</svg>